<?xml version="1.0" encoding="utf-8"?>
<!-- Svg Vector Icons : http://www.onlinewebfonts.com/icon -->
<!DOCTYPE svg PUBLIC "-//W3C//DTD SVG 1.1//EN" "http://www.w3.org/Graphics/SVG/1.1/DTD/svg11.dtd">
<svg version="1.1" xmlns="http://www.w3.org/2000/svg" xmlns:xlink="http://www.w3.org/1999/xlink" x="0px" y="0px" viewBox="0 0 1000 1000" enable-background="new 0 0 1000 1000" xml:space="preserve">
<metadata> Svg Vector Icons : http://www.onlinewebfonts.com/icon </metadata>
<g><g transform="translate(0.000000,511.000000) scale(0.100000,-0.100000)"><path d="M9152.9,1358.1c-196.1-186.3-533.3-507.8-751-715.7c-278.4-264.7-413.7-380.4-460.8-394.1c-39.2-9.8-174.5-9.8-319.6-2c-705.9,41.2-6078.4,90.2-6364.7,56.9C968.6,269.9,574.5,158.1,417.7,67.9C309.8,3.2,100-190.9,100-226.2c0-43.1,88.2-131.4,176.5-176.5C390.2-459.5,656.9-538,890.2-579.1c290.2-52.9,625.5-72.6,1464.7-90.2c643.1-13.7,694.1-11.8,668.6,17.6c-37.3,47.1-11.8,125.5,52.9,158.8c274.5,141.2,1398,80.4,2460.8-137.3c125.5-25.5,247.1-54.9,268.6-66.7c21.6-11.7,264.7-19.6,635.3-19.6h598l366.7,68.6c366.7,70.6,1562.8,309.8,2125.5,427.5l303.9,62.7l5.9,90.2l5.9,88.2l-305.9,27.5c-168.6,13.7-307.8,31.4-311.8,37.3c-3.9,5.9,145.1,364.7,331.4,796.1L9900,1666l-92.2,13.7c-49,5.9-137.2,13.7-194.1,13.7l-103.9,2L9152.9,1358.1z M560.8,40.5c54.9-23.5,68.6-39.2,68.6-84.3c0-60.8-47.1-143.1-82.4-143.1c-17.6,0-223.5,92.2-249,111.8C276.5-59.5,435.3,67.9,478.4,67.9C486.3,67.9,523.5,54.2,560.8,40.5z M1488.2-126.2c17.7-9.8,23.5-47.1,19.6-101.9c-5.9-72.6-11.8-86.3-52.9-92.2c-23.5-3.9-66.7-2-92.2,3.9c-41.2,11.8-47.1,23.5-47.1,98c0,51,9.8,90.2,25.5,96.1C1380.4-106.6,1460.8-108.5,1488.2-126.2z M1958.8-132.1c13.7-13.7,23.5-51,23.5-84.3c0-33.3-9.8-70.6-23.5-84.3c-13.7-13.7-51-23.5-84.3-23.5c-33.3,0-70.6,9.8-84.3,23.5c-31.4,31.4-31.4,137.3,0,168.6c13.7,13.7,51,23.5,84.3,23.5C1907.8-108.5,1945.1-118.3,1958.8-132.1z M2402-120.3c21.6-7.9,31.4-37.3,31.4-98c0-74.5-5.9-86.3-47.1-98c-25.5-5.9-68.6-7.8-92.2-3.9c-41.2,5.9-47.1,19.6-52.9,92.2c-3.9,54.9,2,92.1,19.6,101.9C2290.2-106.6,2358.8-104.6,2402-120.3z M2874.5-216.4c0-88.2-3.9-98-47.1-103.9c-23.5-3.9-66.7-2-92.2,3.9c-39.2,9.8-47.1,25.5-47.1,86.3c0,94.1,31.4,125.5,117.6,117.6C2874.5-118.3,2874.5-118.3,2874.5-216.4z M3331.4-132.1c13.7-13.7,23.5-51,23.5-84.3c0-33.3-9.8-70.6-23.5-84.3c-13.7-13.7-51-23.5-84.3-23.5c-33.3,0-70.6,9.8-84.3,23.5c-13.7,13.7-23.5,51-23.5,84.3c0,33.3,9.8,70.6,23.5,84.3c13.7,13.7,51,23.5,84.3,23.5C3280.4-108.5,3317.7-118.3,3331.4-132.1z M3774.5-120.3c21.6-7.9,31.4-37.3,31.4-98c0-74.5-5.9-86.3-47.1-98c-25.5-5.9-68.6-7.8-92.2-3.9c-41.2,5.9-47.1,19.6-52.9,92.2c-3.9,54.9,2,92.1,19.6,101.9C3662.7-106.6,3731.4-104.6,3774.5-120.3z M4247.1-216.4c0-96.1,0-98-64.7-103.9c-84.3-7.8-121.6,23.5-121.6,102c0,82.3,33.3,113.7,117.6,105.9C4247.1-118.3,4247.1-118.3,4247.1-216.4z M4703.9-132.1c33.3-33.3,29.4-143.1-3.9-170.6c-15.7-13.7-58.8-21.6-94.1-17.6c-76.5,7.8-109.8,72.6-76.5,158.8c17.6,43.1,33.3,52.9,86.3,52.9C4651-108.5,4690.2-118.3,4703.9-132.1z M5147.1-120.3c21.6-7.9,31.4-37.3,31.4-98c0-74.5-5.9-86.3-49-98c-27.5-5.9-70.6-5.9-98,0c-43.1,11.8-49,23.5-49,98c0,51,9.8,90.2,25.5,96.1C5043.1-106.6,5111.8-106.6,5147.1-120.3z M5619.6-216.4c0-96.1,0-98-64.7-103.9c-84.3-7.8-121.6,23.5-121.6,102c0,82.3,33.3,113.7,117.6,105.9C5619.6-118.3,5619.6-118.3,5619.6-216.4z M6076.5-132.1c33.3-33.3,29.4-143.1-3.9-170.6c-15.7-13.7-58.8-21.6-94.1-17.6c-58.8,5.9-64.7,11.8-70.6,82.4c-3.9,41.2-2,86.3,3.9,101.9C5925.5-102.7,6043.1-98.7,6076.5-132.1z M6527.5-126.2c17.6-9.8,23.5-47.1,19.6-101.9c-5.9-72.6-11.8-86.3-52.9-92.2c-23.5-3.9-66.7-2-92.1,3.9c-41.2,11.8-47.1,23.5-47.1,98c0,51,9.8,90.2,25.5,96.1C6419.6-106.6,6500-108.5,6527.5-126.2z M7005.9-157.6c37.2-80.4,0-154.9-78.4-162.7c-84.3-7.8-121.6,23.5-121.6,102c0,80.4,31.4,109.8,111.8,109.8C6968.6-108.5,6988.2-120.3,7005.9-157.6z M7449-132.1c33.3-33.3,29.4-143.1-3.9-170.6c-15.7-13.7-58.8-21.6-94.1-17.6c-60.8,5.9-64.7,9.8-70.6,92.2c-3.9,54.9,2,92.1,19.6,101.9C7337.2-100.7,7421.6-104.6,7449-132.1z M7900-126.2c17.7-9.8,23.5-47.1,19.6-101.9c-5.9-72.6-11.8-86.3-52.9-92.2c-23.5-3.9-66.7-2-92.1,3.9c-41.2,11.8-47.1,23.5-47.1,98c0,51,9.8,90.2,25.5,96.1C7792.1-106.6,7872.6-108.5,7900-126.2z M8370.6-132.1c13.7-13.7,23.5-51,23.5-84.3c0-76.5-31.4-107.8-107.9-107.8c-76.5,0-107.8,31.4-107.8,107.8c0,76.5,31.4,107.8,107.8,107.8C8319.6-108.5,8356.9-118.3,8370.6-132.1z"/><path d="M6982.4,1499.3c-119.6-11.8-194.1-47.1-1088.2-523.5c-527.5-280.4-986.3-523.5-1017.6-539.2c-54.9-27.4-9.8-31.4,564.7-45.1l623.5-15.7l402,400c521.6,519.6,727.4,743.1,680.4,741.2C7125.5,1515,7052.9,1507.1,6982.4,1499.3z"/><path d="M3492.2-520.3c-252.9-15.7-409.8-49-376.5-82.4c56.9-56.9,2164.7-602,3131.4-809.8c303.9-64.7,349-70.6,523.5-56.9c105.9,5.9,196.1,19.6,202,25.5c3.9,7.8-41.2,39.2-102,68.6c-60.8,29.4-329.4,172.5-598,315.7c-266.7,145.1-527.4,276.5-580.4,294.1c-223.5,70.6-1215.7,215.7-1613.7,235.3c-123.5,5.9-254.9,13.7-292.2,17.7C3749-510.5,3615.7-514.4,3492.2-520.3z"/></g></g>
</svg>