<?xml version="1.0" encoding="utf-8"?>
<!-- Svg Vector Icons : http://www.onlinewebfonts.com/icon -->
<!DOCTYPE svg PUBLIC "-//W3C//DTD SVG 1.1//EN" "http://www.w3.org/Graphics/SVG/1.1/DTD/svg11.dtd">
<svg version="1.1" xmlns="http://www.w3.org/2000/svg" xmlns:xlink="http://www.w3.org/1999/xlink" x="0px" y="0px" viewBox="0 0 1000 1000" enable-background="new 0 0 1000 1000" xml:space="preserve">
<metadata> Svg Vector Icons : http://www.onlinewebfonts.com/icon </metadata>
<g><g transform="translate(0.000000,511.000000) scale(0.100000,-0.100000)"><path d="M662,1502.5c-128.9-89.8-246.1-310.5-359.4-669.9C144.4,328.8,80-97,105.4-487.6c11.7-181.6,21.5-234.4,54.7-285.2c74.2-107.4,138.7-140.6,285.2-148.4L578-929l9.8,103.5c15.6,193.4,127,353.5,304.7,441.4c146.5,72.3,359.4,76.2,486.3,9.8c185.5-95.7,304.7-261.7,330.1-457l13.7-93.7h2505.8H6736v64.4c0,201.2,191.4,451.2,390.6,509.8c214.8,64.5,390.6,23.4,554.7-127c115.2-105.5,187.5-250,187.5-378.9v-68.4h183.6H8234l13.7,89.8c60.5,451.2,558.6,662.1,914,388.7c113.3-85.9,210.9-269.5,210.9-396.5V-929l164.1,5.9c177.7,7.8,232.4,33.2,312.5,142.6c39.1,52.7,41,78.1,46.9,1062.5l3.9,1009.7l-43,85.9c-27.3,54.7-70.3,99.6-113.3,123c-64.4,33.2-250,35.2-4550.6,35.2C978.4,1535.7,706.9,1533.8,662,1502.5z M2443.2,1287.7c33.2-29.3,35.2-82,35.2-851.5c0-736.3-3.9-824.2-33.2-857.4c-27.3-31.2-66.4-35.1-351.6-35.1c-293,0-322.3,3.9-357.4,39.1c-37.1,37.1-39.1,64.4-39.1,849.6s2,812.5,39.1,849.6c35.2,35.2,64.4,39.1,355.5,39.1C2357.3,1320.9,2411.9,1315,2443.2,1287.7z M5837.6,1281.8c37.1-37.1,39.1-64.4,39.1-849.6c0-970.7,25.4-888.6-267.6-888.6c-148.4,0-195.3,7.8-224.6,33.2c-33.2,29.3-35.2,82-35.2,857.4c0,724.6,3.9,828.1,31.3,855.4c23.4,23.4,74.2,31.3,224.6,31.3C5773.2,1320.9,5804.4,1315,5837.6,1281.8z M6490,1289.6c27.3-27.3,31.2-130.8,31.2-851.5c0-738.3-3.9-826.1-33.2-859.4c-25.4-29.3-62.5-35.1-224.6-35.1c-294.9,0-269.5-82-269.5,888.6c0,970.7-25.4,888.6,271.5,888.6C6415.7,1320.9,6466.5,1313.1,6490,1289.6z M1388.5,1170.5c33.2-29.3,35.2-74.2,35.2-630.8c0-439.4-5.9-603.5-23.4-621.1c-17.6-17.6-164.1-23.4-537.1-23.4H349.5L328-50.2c-17.6,41-13.7,103.5,17.6,277.3c76.2,419.9,207,781.2,334,916l56.6,60.5h308.6C1302.6,1203.7,1357.3,1197.9,1388.5,1170.5z M3314.3,1055.3c41-27.3,43-43,43-300.8c0-343.7,11.7-332-326.2-332c-324.2,0-318.3-5.9-318.3,332s-5.9,332,318.3,332C3216.6,1086.5,3281.1,1078.7,3314.3,1055.3z M4212.7,1055.3c41-27.3,43-43,43-300.8c0-343.7,11.7-332-326.2-332c-324.2,0-318.3-5.9-318.3,332s-5.9,332,318.3,332C4115,1086.5,4179.5,1078.7,4212.7,1055.3z M5115,1047.5c35.2-35.2,39.1-64.4,39.1-293c0-337.9,5.9-332-318.3-332c-337.9,0-326.2-11.7-326.2,332s-11.7,332,326.2,332C5050.5,1086.5,5079.8,1082.6,5115,1047.5z M7376.6,1055.3c41-27.3,43-43,43-300.8c0-343.7,11.7-332-326.2-332c-324.2,0-318.3-5.9-318.3,332s-5.9,332,318.3,332C7279,1086.5,7343.4,1078.7,7376.6,1055.3z M8278.9,1047.5c35.2-35.2,39.1-64.4,39.1-293c0-337.9,5.9-332-318.3-332c-337.9,0-326.2-11.7-326.2,332s-11.7,332,326.2,332C8214.5,1086.5,8243.8,1082.6,8278.9,1047.5z M9153.9,1055.3c41-27.3,43-43,43-294.9c0-351.6,13.7-337.9-316.4-337.9c-335.9,0-328.1-7.8-328.1,332c0,337.9-5.9,332,318.3,332C9056.3,1086.5,9120.7,1078.7,9153.9,1055.3z"/><path d="M1011.6-485.7c-257.8-82-373-419.9-218.7-642.6c64.4-93.7,232.4-187.5,335.9-187.5c171.9,0,318.4,89.8,396.5,240.2c60.5,119.2,44.9,314.5-35.2,427.7C1384.6-495.4,1189.3-429,1011.6-485.7z M1292.8-645.8c123-62.5,169.9-261.7,91.8-390.6c-142.6-236.3-492.2-156.2-521.5,119.2c-11.7,93.7,19.5,169.9,97.7,242.2C1048.7-591.2,1167.8-581.4,1292.8-645.8z"/><path d="M1197.1-737.6c-13.7-33.2-105.5-42.9-105.5-11.7c0,11.7-13.7,19.5-31.3,19.5c-23.4,0-29.3-11.7-21.5-41c15.6-56.7-3.9-95.7-46.9-95.7c-52.7,0-46.9-54.7,7.8-62.5c31.3-3.9,43-19.5,43-58.6c0-66.4,27.3-93.7,50.8-48.8c23.4,41,87.9,43,103.5,3.9c17.6-44.9,54.7-35.2,50.8,15.6c-5.9,74.2-2,85.9,39.1,97.6c44.9,11.7,52.7,52.7,9.8,52.7c-35.2,0-66.4,54.7-54.7,97.6C1253.8-724,1212.8-698.6,1197.1-737.6z"/><path d="M7214.5-474c-162.1-41-285.1-162.1-322.2-318.3c-48.8-203.1,46.9-396.5,244.1-486.3c314.4-144.5,669.9,164,576.2,498C7654-569.7,7415.7-423.2,7214.5-474z M7456.7-649.7c128.9-89.8,166-224.6,101.5-361.3c-68.4-138.7-244.1-205.1-369.1-140.6c-121.1,62.5-189.5,187.5-169.9,306.6C7052.4-649.7,7300.5-540.4,7456.7-649.7z"/><path d="M7197-788.4c11.7-50.8,5.9-60.5-41-78.1c-58.6-21.5-54.7-31.2,13.7-66.4c33.2-17.6,43-37.1,39.1-76.2c-7.8-56.7,29.3-74.2,46.9-23.4c15.6,39.1,80.1,37.1,101.6-2c25.4-46.9,64.4-13.7,50.8,41c-9.8,39.1-2,52.7,39.1,70.3c58.6,27.4,66.4,56.7,13.7,56.7c-39.1,0-68.4,48.8-62.5,103.5c5.9,39.1-5.9,41-56.6,9.8c-31.3-19.5-46.9-19.5-78.1,0C7202.8-716.1,7185.2-724,7197-788.4z"/><path d="M8718.4-474C8558.2-513,8446.9-624.3,8404-786.5c-41-158.2,9.8-316.4,136.7-427.7c218.7-191.4,580.1-89.8,673.8,189.5c74.2,222.6-54.7,472.6-279.3,539C8829.7-454.4,8808.2-452.5,8718.4-474z M8962.5-649.7c76.2-54.7,136.7-156.3,136.7-230.5c0-289-363.3-402.3-521.5-164c-74.2,109.4-52.7,293,41,371.1C8714.5-593.1,8868.8-583.3,8962.5-649.7z"/><path d="M8714.5-766.9c11.7-44.9-19.5-99.6-54.7-99.6c-15.6,0-29.3-13.7-29.3-29.3s17.6-29.3,37.1-29.3c42.9,0,62.5-39.1,46.9-95.7c-11.7-46.9,17.6-54.7,52.7-11.7c31.2,37.1,66.4,37.1,97.7,0c33.2-41,60.5-17.6,46.9,39.1c-9.8,39.1-2,52.7,39.1,68.4c62.5,23.4,64.5,43,7.8,68.4c-33.2,13.7-43,35.1-41,74.2c3.9,58.6-13.7,64.5-72.3,29.3c-31.3-19.5-46.9-19.5-78.1,0C8714.5-720.1,8702.8-724,8714.5-766.9z"/></g></g>
</svg>