<?xml version="1.0" encoding="utf-8"?>
<!-- Svg Vector Icons : http://www.onlinewebfonts.com/icon -->
<!DOCTYPE svg PUBLIC "-//W3C//DTD SVG 1.1//EN" "http://www.w3.org/Graphics/SVG/1.1/DTD/svg11.dtd">
<svg version="1.1" xmlns="http://www.w3.org/2000/svg" xmlns:xlink="http://www.w3.org/1999/xlink" x="0px" y="0px" viewBox="0 0 1000 1000" enable-background="new 0 0 1000 1000" xml:space="preserve">
<metadata> Svg Vector Icons : http://www.onlinewebfonts.com/icon </metadata>
<g><g transform="translate(0.000000,511.000000) scale(0.100000,-0.100000)"><path d="M3845.7,2778.1c-19.8-9.9-99-126.8-176.3-255.5l-142.6-237.7h-241.7c-202,0-249.6-5.9-285.2-33.7c-29.7-25.7-63.4-130.7-130.7-400.1c-101-408-101-417.9,41.6-417.9c47.5,0,87.2-4,87.2-9.9s-27.7-53.5-61.4-108.9l-59.4-97.1l-73.3,27.7c-251.6,97.1-681.4,168.4-1022.1,168.4c-194.1,0-578.4-29.7-645.7-49.5c-17.8-5.9-65.4-77.3-105-160.4c-61.4-120.8-67.4-148.6-39.6-136.7c19.8,5.9,124.8,31.7,233.7,53.5c281.3,57.4,740.8,57.4,994.4,0c180.2-41.6,481.3-154.5,481.3-180.3c0-7.9-45.6-87.2-101-178.3c-77.2-126.8-108.9-160.4-132.7-150.5c-283.3,114.9-526.9,158.5-802.2,142.6c-249.6-15.8-445.7-69.3-667.5-184.2C581.3,355.6,294.1,5,153.5-458.5C105.9-615,100-670.5,100-914.1c0-243.6,5.9-299.1,53.5-451.6C329.8-1952.1,747.7-2366,1326.1-2532.4c206-59.4,641.8-63.4,837.9-9.9c311,85.2,513,196.1,738.8,408.1c348.6,326.8,530.8,738.8,530.8,1206.3c0,485.3-174.3,897.3-520.9,1226.1l-146.6,138.7l97.1,154.5c51.5,87.2,103,164.4,110.9,172.3c25.8,25.7,307-247.6,441.7-425.9c154.5-206,318.9-544.7,384.3-786.4c31.7-116.9,55.5-269.4,63.4-400.1l11.9-213.9H4125c136.7,0,414-5.9,616-11.9c202-7.9,594.2-6,873.5,2l507.1,13.9l11.9,172.3c13.9,198.1,49.5,344.6,140.6,568.5c63.4,162.4,267.4,507.1,291.2,499.2c7.9-4,67.4-47.5,132.7-97l116.9-93.1l-85.2-174.3c-114.9-233.8-166.4-459.5-166.4-734.9c0-481.3,180.2-891.4,540.8-1226.1c217.9-202.1,423.9-315,728.9-398.2c198.1-53.5,633.9-49.5,835.9,9.9c582.4,166.4,1032,624,1186.5,1202.4c59.4,223.8,59.4,608.1,0,831.9C9700.9,76.3,9247.3,539.8,8682.8,700.2c-188.2,53.5-520.9,73.3-703.2,41.6c-318.9-53.5-631.9-200.1-845.8-396.2c-61.4-55.5-116.9-101-124.8-101s-67.4,41.6-132.7,93.1l-118.8,95.1L6953.6,621c334.7,322.9,689.3,534.8,1144.9,683.4c416,136.7,861.7,206,1315.3,208l210,2l107,97.1l105,97.1l-81.2,21.8c-192.1,51.5-629.9,101-972.6,112.9c-400.1,11.9-584.3-4-1253.8-114.9c-336.7-55.5-378.3-57.4-988.4-57.4h-637.8l-89.1-95.1c-49.5-51.5-156.5-206-237.7-340.7c-81.2-134.7-174.3-275.3-206-311c-69.3-77.2-91.1-79.2-489.3-35.6c-461.5,51.5-550.7,69.3-649.7,136.7c-170.4,114.9-338.7,435.8-441.7,835.9l-45.6,180.3l87.2,146.6c47.5,81.2,110.9,184.2,142.6,229.8l57.4,85.2l390.2-2c616-4,631.9-4,677.4,41.6c55.5,55.5,51.5,160.4-5.9,213.9c-45.6,43.6-57.5,43.6-629.9,43.6C4109.1,2799.9,3865.5,2790,3845.7,2778.1z M2142.2,284.3c75.3-25.7,122.8-53.5,118.8-69.3c-4-13.9-89.1-160.4-192.1-328.8l-184.2-305.1l-132.7-2c-221.9-2-404.1-136.7-465.5-346.6c-39.6-130.7-39.6-162.4,0-293.2c55.5-190.1,229.8-330.8,433.8-352.6c392.2-41.6,673.5,378.3,489.3,728.9l-55.5,107l176.3,297.1c99,164.4,188.2,309,202,322.9c35.6,39.6,263.4-213.9,352.6-390.2c190.2-378.3,172.3-853.7-41.6-1208.3c-421.9-699.2-1378.6-822-1955.1-251.5C636.8-1557.9,514-1264.7,514-914.1c0,348.6,122.8,641.8,372.4,891.4c160.4,160.4,394.2,289.2,606.1,336.7C1672.8,355.6,1979.8,339.7,2142.2,284.3z M8494.6,314c182.2-37.6,427.8-162.4,568.5-287.2c154.5-136.7,299.1-360.5,364.5-560.6c61.4-190.2,75.3-483.3,29.7-667.5c-83.2-348.6-342.7-673.5-655.6-830c-505.1-247.6-1063.7-160.4-1453.9,227.8c-237.7,237.7-348.6,495.2-364.5,841.8c-9.9,233.8,17.8,380.3,110.9,580.4l53.5,114.9l297.1-231.8l297.1-231.8l-7.9-146.6c-5.9-128.8,0-162.4,47.5-255.5c200-410,800.2-362.5,929,71.3c39.6,130.8,39.6,162.4,0,293.2c-81.2,275.3-388.3,425.9-659.6,320.9c-59.4-21.8-116.9-33.7-128.8-27.7c-33.7,21.8-473.4,364.5-522.9,408l-43.6,41.6l53.5,57.4c112.9,116.9,417.9,263.5,620,297.1C8142,349.6,8365.9,341.7,8494.6,314z"/></g></g>
</svg>