<?xml version="1.0" encoding="utf-8"?>
<!-- Svg Vector Icons : http://www.onlinewebfonts.com/icon -->
<!DOCTYPE svg PUBLIC "-//W3C//DTD SVG 1.1//EN" "http://www.w3.org/Graphics/SVG/1.1/DTD/svg11.dtd">
<svg version="1.1" xmlns="http://www.w3.org/2000/svg" xmlns:xlink="http://www.w3.org/1999/xlink" x="0px" y="0px" viewBox="0 0 1000 1000" enable-background="new 0 0 1000 1000" xml:space="preserve">
<metadata> Svg Vector Icons : http://www.onlinewebfonts.com/icon </metadata>
<g><g transform="translate(0.000000,511.000000) scale(0.100000,-0.100000)"><path d="M8789.6,1841.4c-214.6-336.7-395.7-635.9-403.6-665.5c-15.8-51.2-19.7-53.2-131.9-49.2c-781.6,29.5-1931.4,70.9-2695.3,94.5c-519.8,17.7-1147.8,39.4-1397.9,49.2c-248.1,9.8-594.6,13.8-767.8,5.9l-315-9.8l-59.1,114.2l-59.1,116.2l-112.2,5.9l-114.2,5.9v96.5c0,80.7,5.9,98.4,35.4,98.4c59.1,0,82.7,43.3,82.7,149.6c0,118.1-9.8,126-165.4,126c-124,0-149.6-21.7-149.6-129.9c0-86.6,37.4-145.7,90.6-145.7c19.7,0,27.6-25.6,27.6-98.4v-98.4h-104.3H2446l-57.1-116.2l-55.1-116.2l-169.3-13.8c-261.9-17.7-427.2-61-645.8-167.3C937.9,815.6,430,337.2,189.8-159C26.4-497.6,81.5-718.1,392.6-958.3c240.2-187,513.9-271.7,882-271.7c169.3,0,220.5-5.9,214.6-25.6c-5.9-11.8-66.9-185.1-133.9-382l-126-360.3h-68.9c-147.7,2-311.1,116.2-378,267.8c-19.7,45.3-49.2,92.5-65,104.4c-47.2,39.4-135.8,17.7-167.3-39.4c-25.6-47.3-25.6-61,5.9-143.7c49.2-128,206.7-293.3,342.6-360.3l112.2-55.1l1484.5-5.9c1366.4-3.9,1486.5-2,1519.9,27.6c37.4,33.5,49.2,98.4,21.7,137.8c-35.4,55.1-110.3,67-425.3,67h-326.8v383.9v383.9h114.2c157.5,0,269.7,37.4,482.4,159.5c494.2,281.6,756,523.7,1071,996.2c145.7,218.5,145.7,220.5,248.1,242.2c187,39.4,565.1,96.5,1569.2,234.3c1017.9,141.8,1500.2,212.6,1559.3,230.4c21.7,5.9,41.3-7.9,59.1-43.3c13.8-29.5,198.8-196.9,407.5-370.1l383.9-317l332.7-5.9c287.5-5.9,332.7-2,322.9,21.7c-5.9,15.7-82.7,118.1-169.3,224.4c-88.6,108.3-159.5,204.8-159.5,214.6s57.1,70.9,128,135.8l128,120.1v281.5v283.5l-92.5,86.6c-53.2,49.2-114.2,102.4-137.8,118.1c-25.6,15.7-45.3,43.3-45.3,61c0,17.7,92.5,246.1,206.7,509.9c114.2,261.9,206.7,482.4,206.7,488.3c0,5.9-163.4,9.8-360.3,9.8h-362.3L8789.6,1841.4z M9313.3,1335.4c51.2-27.6,94.5-57.1,94.5-65c0-7.9-55.1-65-124-124c-116.2-102.4-131.9-108.3-210.7-102.4c-80.7,5.9-88.6,11.8-169.3,139.8c-47.3,72.8-86.6,139.8-86.6,147.7c0,9.8,41.3,29.5,94.5,47.3C9035.7,1418.1,9191.2,1402.3,9313.3,1335.4z M8793.5,1091.2c92.5-100.4,98.4-116.2,92.5-194.9c-5.9-82.7-11.8-90.6-137.8-171.3c-70.9-47.3-137.8-80.7-147.7-74.8s-27.6,59.1-41.3,118.1c-17.7,84.7-19.7,131.9,0,212.6c23.6,110.3,90.6,238.2,118.1,226.4C8687.2,1203.5,8738.4,1152.3,8793.5,1091.2z M9565.3,1038.1c45.3-163.4,13.8-352.4-76.8-454.8l-51.2-61l-110.2,124c-108.3,120.1-112.2,128-102.4,212.6c9.8,84.7,15.7,92.5,151.6,179.2c76.8,49.2,145.7,86.6,153.6,82.7C9537.7,1114.9,9553.5,1079.4,9565.3,1038.1z M1558.1,685.6c-210.7-218.5-362.3-580.8-393.8-941.1l-11.8-147.7H713.5h-441l41.3,104.3c165.4,425.3,689.1,988.3,1010,1088.8c45.3,13.8,143.7,25.6,220.5,25.6l139.8,2L1558.1,685.6z M3217.8,762.4c275.6-200.8,413.5-565.1,370.1-978.5l-17.7-177.2L2450-399.2l-1118.3-3.9l13.8,141.8c39.4,397.7,191,746.2,427.2,982.4l96.5,96.5h635.9H3141L3217.8,762.4z M9075.1,699.4c39.4,0,67-25.6,131.9-129.9c45.3-70.9,82.7-135.8,82.7-145.7c0-33.5-143.7-63-263.8-55.1c-88.6,5.9-147.7,21.7-216.6,63l-94.5,55.1L8829,604.9c86.6,86.6,126,114.2,155.5,106.3C9006.2,705.3,9047.5,699.4,9075.1,699.4z M3107.6-1613.9v-383.9H2259c-486.3,0-844.6,7.9-840.7,17.7c3.9,9.8,63,183.1,133.9,383.9l128,366.2h714.7h712.7V-1613.9z"/><path d="M833.6,1920.1c-332.7-17.7-691.1-61-655.6-78.8c169.3-94.5,1962.9-92.5,2122.4,2c15.7,7.9,19.7,17.7,5.9,17.7c-11.8,0-135.8,11.8-275.6,27.6C1721.5,1924,1176.2,1937.8,833.6,1920.1z"/><path d="M3747.4,1920.1c-352.4-17.7-695-59.1-657.6-78.8c167.4-92.5,1955-92.5,2122.4,0c39.4,21.7-293.4,59.1-706.8,78.8c-200.8,9.8-385.9,17.7-413.5,15.7C4064.4,1933.9,3910.8,1928,3747.4,1920.1z"/></g></g>
</svg>