<?xml version="1.0" encoding="utf-8"?>
<!-- Svg Vector Icons : http://www.onlinewebfonts.com/icon -->
<!DOCTYPE svg PUBLIC "-//W3C//DTD SVG 1.1//EN" "http://www.w3.org/Graphics/SVG/1.1/DTD/svg11.dtd">
<svg version="1.1" xmlns="http://www.w3.org/2000/svg" xmlns:xlink="http://www.w3.org/1999/xlink" x="0px" y="0px" viewBox="0 0 1000 1000" enable-background="new 0 0 1000 1000" xml:space="preserve">
<metadata> Svg Vector Icons : http://www.onlinewebfonts.com/icon </metadata>
<g><g transform="translate(0.000000,511.000000) scale(0.100000,-0.100000)"><path d="M5614,1666.7c-68.9-9.8-155.5-27.5-190.9-39.4c-37.4-11.8-405.4-192.9-820.6-401.4c-499.8-251.9-783.2-383.7-842.2-391.6c-49.2-7.9-468.3-45.3-934.7-82.7C1753,663,1497.2,635.5,1241.4,572.5c-346.3-84.6-917-312.9-1039-413.3C141.3,108.1,100-67,100-287.4c0-263.7,49.2-340.4,236.1-375.8l68.9-11.8l2-125.9c2-82.7,13.8-145.6,35.4-177.1c31.5-51.2,33.5-51.2,314.9-51.2h281.4L1013.1-927c-35.4,133.8-35.4,371.9,2,505.7c137.8,517.5,669.1,852.1,1182.7,743.8c590.4-126,938.7-700.5,785.2-1296.8l-13.8-55.1h2125.3h2125.3l-27.5,92.5C7150.9-801,7156.8-527.5,7204-376c145.6,474.2,651.4,787.1,1135.5,704.5c375.9-63,702.5-346.3,814.7-706.5c43.3-143.7,53.1-415.2,17.7-533.3c-29.5-102.3-27.6-104.3,86.6-92.5c135.8,13.8,246,63,401.4,179.1l122,94.5V-498c0,137.8,7.9,238.1,19.7,246C9839-228.4,9900-86.7,9900-19.8c0,53.1-19.7,84.6-88.6,155.5l-88.6,90.5l13.8,295.2l11.8,295.2l-53.1,33.5c-35.4,23.6-129.9,43.3-283.4,61c-263.7,27.5-232.2,17.7-1027.2,316.8c-798.9,301.1-1023.3,377.8-1210.2,413.3C6987.5,1674.5,5810.8,1694.2,5614,1666.7z M7133.2,1353.8c53.1-21.7,55.1-27.6,45.3-106.3c-5.9-47.2-53.1-192.8-104.3-324.7l-92.5-240.1h-850.1h-850.1l-90.5,61c-80.7,53.1-171.2,149.6-171.2,181c0,15.8,271.6,214.5,391.6,287.3c143.7,86.6,285.4,139.7,425.1,159.4C6011.5,1397.1,7064.3,1381.3,7133.2,1353.8z M7733.4,1117.6c198.8-84.6,370-169.2,379.8-186.9c13.8-23.6-5.9-55.1-74.8-129.9l-92.5-98.4h-391.6c-332.6,0-391.6,3.9-383.7,27.6c5.9,15.7,39.4,137.8,74.8,271.6c68.9,271.6,68.9,271.6,102.3,271.6C7361.4,1273.1,7534.6,1202.3,7733.4,1117.6z"/><path d="M1855.3,90.4c-606.1-118.1-844.2-877.7-413.3-1314.5C1896.7-1682.7,2672-1434.7,2772.4-801c66.9,415.2-220.4,816.7-633.6,891.4C2006.9,114,1975.4,114,1855.3,90.4z M2205.6-204.8c480.2-216.5,381.8-915.1-141.7-991.8c-265.7-39.4-547.1,183-580.5,460.5C1438.2-350.4,1853.4-45.4,2205.6-204.8z"/><path d="M1812-391.7c-19.7-21.7-19.7-39.4-3.9-76.8c27.6-61-5.9-147.6-57.1-147.6c-63,0-96.4-23.6-96.4-68.9c0-47.2,59-82.7,96.4-59c11.8,5.9,35.4-11.8,53.1-39.4c23.6-37.4,27.5-61,13.8-102.3c-25.6-72.8-11.8-104.3,41.3-104.3c27.5,0,53.1,17.7,66.9,47.2c27.6,63,116.1,63,167.3,0c66.9-86.6,141.7-37.4,94.5,63c-27.5,62.9,21.6,145.6,86.6,145.6c23.6,0,55.1,13.8,68.9,29.5c33.5,41.3-7.9,88.6-78.7,88.6c-68.9,0-108.2,74.8-74.8,147.6c15.7,37.4,15.7,55.1-3.9,78.7c-35.4,43.3-76.7,35.4-102.3-19.7c-17.7-37.4-37.4-49.2-86.6-49.2c-35.4,0-66.9,11.8-72.8,27.5C1904.5-379.9,1839.6-356.3,1812-391.7z"/><path d="M8030.5,90.4c-234.2-45.3-464.4-226.3-566.7-446.7c-47.2-98.4-53.1-135.8-53.1-318.8c0-190.9,3.9-216.5,61-334.5c76.8-163.3,208.6-295.2,377.8-377.8c122-61,145.6-64.9,328.6-64.9s206.6,3.9,328.6,64.9c173.2,84.6,299.1,208.6,375.9,373.9c59,122,63,147.6,63,338.5c0,183-5.9,220.4-53.1,318.8C8786.2-130,8559.9,45.1,8317.8,90.4C8186,114,8154.5,114,8030.5,90.4z M8384.7-204.8c179.1-80.7,291.2-238.1,309-431c33.5-358.2-309-641.5-649.4-543.1c-214.5,63-360.1,234.2-381.8,452.6C7623.2-344.5,8034.5-45.4,8384.7-204.8z"/><path d="M7989.2-391.7c-17.7-21.7-17.7-41.3-2-76.8c33.5-72.8-3.9-141.7-86.6-157.4c-53.1-9.8-66.9-21.6-66.9-59c0-47.2,59-82.7,96.4-61c9.8,5.9,33.4-11.8,51.2-39.4c25.6-41.3,29.5-61,11.8-98.4c-45.3-98.4,47.2-149.6,106.3-59c19.7,29.5,49.2,47.2,82.7,47.2s66.9-19.7,90.5-47.2c66.9-84.6,141.7-37.4,96.4,61c-31.5,68.9,9.8,143.7,84.6,151.5c49.2,3.9,59,15.7,59,55.1c0,41.3-9.8,51.2-63,55.1c-76.7,7.9-122,92.5-84.6,161.4c17.7,31.5,17.7,49.2-2,70.8c-33.5,41.3-74.8,33.4-100.4-21.7c-27.5-63-141.7-70.8-171.2-11.8C8064-370.1,8018.7-356.3,7989.2-391.7z"/></g></g>
</svg>