<?xml version="1.0" encoding="utf-8"?>
<!-- Svg Vector Icons : http://www.onlinewebfonts.com/icon -->
<!DOCTYPE svg PUBLIC "-//W3C//DTD SVG 1.1//EN" "http://www.w3.org/Graphics/SVG/1.1/DTD/svg11.dtd">
<svg version="1.1" xmlns="http://www.w3.org/2000/svg" xmlns:xlink="http://www.w3.org/1999/xlink" x="0px" y="0px" viewBox="0 0 1000 1000" enable-background="new 0 0 1000 1000" xml:space="preserve">
<metadata> Svg Vector Icons : http://www.onlinewebfonts.com/icon </metadata>
<g><g transform="translate(0.000000,511.000000) scale(0.100000,-0.100000)"><path d="M7168.2,1891.6c0-25.3-91.5-29.2-710.7-29.2h-710.7v-48.7v-48.7H6253h506.3v-68.1v-68.1h-116.8h-116.8v-175.2v-175.2H6915h389.4v175.2v175.2h-185h-185v68.1v68.1h241.5c259,0,264.8,1.9,264.8,109c0,44.8-5.8,46.7-136.3,46.7C7195.4,1920.8,7168.2,1915,7168.2,1891.6z"/><path d="M4500.6,890.8L4023.5,661H2372.3c-1600.6-1.9-1649.2,0-1649.2,35.1c0,35-19.5,37-311.5,37H100V567.6V402.1h311.5c297.9,0,311.5,2,311.5,38.9c0,38.9,15.6,38.9,4020.9,42.8l4022.8,5.8l-200.5,315.4l-200.6,317.4l-1694-2h-1694L4500.6,890.8z"/><path d="M4364.3,209.3c0-111-1.9-116.8-52.6-126.6c-31.1-5.8-566.6-89.6-1193.6-186.9C1332.5-378.7,1132-409.9,1122.3-417.7c-3.9-5.8,140.2-134.4,321.3-286.2l329.1-276.5h3839.8h3837.8l75.9,54.5l75.9,52.6v148v148L9752-435.2l148,142.1V-38c-1.9,140.2-1.9,278.4-3.9,309.6l-1.9,52.6h-2765h-2765V209.3z"/><path d="M9253.5-1027.1c-17.5-19.5-15.6-31.1,7.8-50.6c37-31.1,79.8,1.9,62.3,46.7C9308.1-992.1,9282.8-992.1,9253.5-1027.1z"/><path d="M1893.3-1046.6c-19.5-23.3-15.6-33.1,13.6-48.7c29.2-15.6,44.8-13.6,64.3,9.7c19.5,25.3,19.5,33.1-3.9,48.7C1930.3-1013.5,1918.6-1015.4,1893.3-1046.6z"/><path d="M2436.6-1107c0-142.1,142.1-321.3,297.9-371.9c257-85.7,541.3,83.7,590,348.5l11.7,72h-89.6c-72.1,0-89.6-5.8-89.6-33.1c0-56.5-72.1-159.7-140.2-200.6c-37-21.4-99.3-38.9-142.1-38.9c-134.4,0-220,75.9-270.6,239.5c-7.8,23.4-31.2,33.1-89.6,33.1C2444.4-1058.3,2436.6-1062.2,2436.6-1107z"/><path d="M3507.5-1110.9c2-146,159.7-331,323.2-375.8c245.3-70.1,517.9,103.2,564.7,356.3l11.7,72h-89.6c-72.1,0-89.6-5.8-89.6-33.1c0-56.5-72.1-159.7-140.2-200.6c-89.6-54.5-204.5-50.6-290.1,7.8c-62.3,42.8-85.7,79.8-122.7,192.8c-7.8,23.4-31.2,33.1-89.6,33.1C3513.3-1058.3,3507.5-1062.2,3507.5-1110.9z"/><path d="M4578.4-1110.9c2-142.1,155.8-327.1,309.6-371.9c153.8-46.7,331-7.8,447.9,99.3c54.5,50.6,138.2,220,138.2,282.3c0,38.9-9.7,42.8-87.6,42.8c-70.1,0-87.6-5.8-87.6-33.1c0-105.1-151.9-239.5-268.7-239.5c-138.2,0-276.5,114.9-276.5,229.8c0,37-9.7,42.8-87.6,42.8C4584.3-1058.3,4578.4-1062.2,4578.4-1110.9z"/><path d="M5649.4-1110.9c1.9-142.1,155.8-327.1,309.6-371.9c153.8-46.7,331-7.8,447.8,99.3c54.5,50.6,138.2,220,138.2,282.3c0,37-9.7,42.8-85.7,42.8c-81.8,0-85.7-3.9-97.4-64.2c-17.5-97.4-124.6-190.8-231.7-202.5c-151.9-17.5-305.7,95.4-305.7,223.9c0,37-9.7,42.8-87.6,42.8C5655.2-1058.3,5649.4-1062.2,5649.4-1110.9z"/><path d="M6720.3-1110.9c0-136.3,157.7-327.1,309.6-371.9c153.8-46.7,331-7.8,447.8,99.3c54.5,50.6,138.2,220,138.2,282.3c0,37-9.7,42.8-85.7,42.8c-81.8,0-85.7-3.9-97.4-64.2c-29.2-157.7-233.7-253.1-387.5-179.1c-77.9,35-149.9,134.4-149.9,202.5c0,35-11.7,40.9-87.6,40.9C6726.2-1058.3,6720.3-1062.2,6720.3-1110.9z"/><path d="M7791.2-1107c0-192.8,231.7-399.2,447.8-399.2c181.1,0,375.8,142.1,426.4,309.6c37,126.6,31.1,138.2-66.2,138.2c-81.8,0-87.6-3.9-87.6-48.7c0-31.1-29.2-79.8-74-128.5c-89.6-97.4-206.4-120.7-321.3-66.2c-77.9,35-149.9,134.4-149.9,202.5c0,35-11.7,40.9-87.6,40.9C7799-1058.3,7791.2-1062.2,7791.2-1107z"/><path d="M9062.7-1167.3c-17.5-44.8,25.3-77.9,62.3-46.7c23.4,19.5,25.3,31.2,7.8,50.6C9103.6-1128.4,9078.3-1128.4,9062.7-1167.3z"/><path d="M2078.3-1186.8c-7.8-17.5-1.9-44.8,9.7-58.4c19.5-23.4,27.3-21.4,46.7,5.8c19.5,25.3,19.5,42.9,5.8,58.4C2113.3-1147.9,2091.9-1149.8,2078.3-1186.8z"/><path d="M8870-1293.9c-5.8-11.7,0-33.1,15.6-48.7c25.3-25.3,31.1-25.3,52.6,0c13.6,15.6,19.5,38.9,11.7,50.6C8934.2-1266.6,8887.5-1266.6,8870-1293.9z"/><path d="M2247.7-1342.6c-15.6-38.9,33.1-70.1,66.2-42.8c19.5,15.6,19.5,27.2,3.9,46.7C2288.6-1303.6,2263.3-1303.6,2247.7-1342.6z"/><path d="M8692.8-1422.4c-17.5-5.8-19.5-19.5-5.8-46.7c17.5-31.2,29.2-33.1,60.4-15.6c31.2,15.6,35.1,25.3,15.6,48.7C8739.5-1406.8,8731.7-1404.9,8692.8-1422.4z"/><path d="M2436.6-1475c-19.5-25.3-19.5-37,0-62.3c23.4-27.3,29.2-27.3,56.5,0c27.3,29.2,27.3,33.1,0,62.3C2465.8-1447.7,2460-1447.7,2436.6-1475z"/><path d="M8513.6-1552.9c-27.3-33.1-13.6-70.1,27.3-70.1c42.8,0,56.5,38.9,25.3,70.1C8540.9-1527.5,8535.1-1527.5,8513.6-1552.9z"/><path d="M2604-1634.6c-17.5-46.7,23.4-85.7,46.7-46.7c9.7,15.6,15.6,37,13.6,46.7C2652.7-1601.6,2617.7-1601.6,2604-1634.6z"/><path d="M2787.1-1661.9c0-25.3,13.6-38.9,38.9-38.9c25.3,0,38.9,13.6,38.9,38.9c0,25.3-13.6,38.9-38.9,38.9C2800.7-1623,2787.1-1636.6,2787.1-1661.9z"/><path d="M3020.7-1661.9c0-25.3,13.6-38.9,38.9-38.9s38.9,13.6,38.9,38.9c0,25.3-13.6,38.9-38.9,38.9S3020.7-1636.6,3020.7-1661.9z"/><path d="M3254.4-1661.9c0-25.3,13.6-38.9,38.9-38.9s38.9,13.6,38.9,38.9c0,25.3-13.6,38.9-38.9,38.9S3254.4-1636.6,3254.4-1661.9z"/><path d="M3488-1661.9c0-25.3,13.6-38.9,38.9-38.9s38.9,13.6,38.9,38.9c0,25.3-13.6,38.9-38.9,38.9S3488-1636.6,3488-1661.9z"/><path d="M3721.7-1661.9c0-25.3,13.6-38.9,38.9-38.9c25.3,0,38.9,13.6,38.9,38.9c0,25.3-13.6,38.9-38.9,38.9C3735.3-1623,3721.7-1636.6,3721.7-1661.9z"/><path d="M3955.4-1661.9c0-25.3,13.6-38.9,38.9-38.9c25.3,0,38.9,13.6,38.9,38.9c0,25.3-13.6,38.9-38.9,38.9C3969-1623,3955.4-1636.6,3955.4-1661.9z"/><path d="M4169.5-1661.9c0-25.3,13.6-38.9,38.9-38.9s38.9,13.6,38.9,38.9c0,25.3-13.6,38.9-38.9,38.9S4169.5-1636.6,4169.5-1661.9z"/><path d="M4403.2-1661.9c0-25.3,13.6-38.9,38.9-38.9s38.9,13.6,38.9,38.9c0,25.3-13.6,38.9-38.9,38.9S4403.2-1636.6,4403.2-1661.9z"/><path d="M4636.9-1661.9c0-25.3,13.6-38.9,38.9-38.9s38.9,13.6,38.9,38.9c0,25.3-13.6,38.9-38.9,38.9S4636.9-1636.6,4636.9-1661.9z"/><path d="M4870.5-1661.9c0-25.3,13.6-38.9,38.9-38.9c25.3,0,38.9,13.6,38.9,38.9c0,25.3-13.6,38.9-38.9,38.9C4884.1-1623,4870.5-1636.6,4870.5-1661.9z"/><path d="M5104.2-1661.9c0-25.3,13.6-38.9,38.9-38.9c25.3,0,38.9,13.6,38.9,38.9c0,25.3-13.6,38.9-38.9,38.9C5117.8-1623,5104.2-1636.6,5104.2-1661.9z"/><path d="M5318.4-1661.9c0-29.2,13.6-38.9,48.7-38.9s48.7,9.7,48.7,38.9s-13.6,38.9-48.7,38.9S5318.4-1632.7,5318.4-1661.9z"/><path d="M5552-1661.9c0-25.3,13.6-38.9,38.9-38.9c25.3,0,38.9,13.6,38.9,38.9c0,25.3-13.6,38.9-38.9,38.9C5565.7-1623,5552-1636.6,5552-1661.9z"/><path d="M5785.7-1661.9c0-25.3,13.6-38.9,38.9-38.9s38.9,13.6,38.9,38.9c0,25.3-13.6,38.9-38.9,38.9S5785.7-1636.6,5785.7-1661.9z"/><path d="M6019.3-1661.9c0-25.3,13.6-38.9,38.9-38.9s38.9,13.6,38.9,38.9c0,25.3-13.6,38.9-38.9,38.9S6019.3-1636.6,6019.3-1661.9z"/><path d="M6253-1661.9c0-25.3,13.6-38.9,38.9-38.9s38.9,13.6,38.9,38.9c0,25.3-13.6,38.9-38.9,38.9S6253-1636.6,6253-1661.9z"/><path d="M6486.6-1661.9c0-25.3,13.6-38.9,38.9-38.9c25.3,0,38.9,13.6,38.9,38.9c0,25.3-13.6,38.9-38.9,38.9C6500.3-1623,6486.6-1636.6,6486.6-1661.9z"/><path d="M6720.3-1661.9c0-25.3,13.6-38.9,38.9-38.9c25.3,0,38.9,13.6,38.9,38.9c0,25.3-13.6,38.9-38.9,38.9C6733.9-1623,6720.3-1636.6,6720.3-1661.9z"/><path d="M6934.5-1661.9c0-25.3,13.6-38.9,38.9-38.9s38.9,13.6,38.9,38.9c0,25.3-13.6,38.9-38.9,38.9S6934.5-1636.6,6934.5-1661.9z"/><path d="M7168.2-1661.9c0-25.3,13.6-38.9,38.9-38.9c25.3,0,38.9,13.6,38.9,38.9c0,25.3-13.6,38.9-38.9,38.9C7181.8-1623,7168.2-1636.6,7168.2-1661.9z"/><path d="M7401.8-1661.9c0-25.3,13.6-38.9,38.9-38.9c25.3,0,38.9,13.6,38.9,38.9c0,25.3-13.6,38.9-38.9,38.9C7415.4-1623,7401.8-1636.6,7401.8-1661.9z"/><path d="M7635.5-1661.9c0-25.3,13.6-38.9,38.9-38.9c25.3,0,38.9,13.6,38.9,38.9c0,25.3-13.6,38.9-38.9,38.9C7649.1-1623,7635.5-1636.6,7635.5-1661.9z"/><path d="M7869.1-1661.9c0-25.3,13.6-38.9,38.9-38.9s38.9,13.6,38.9,38.9c0,25.3-13.6,38.9-38.9,38.9S7869.1-1636.6,7869.1-1661.9z"/><path d="M8087.2-1656.1c3.9-19.5,25.3-37,50.6-40.9c33.1-5.8,42.8,3.9,42.8,33.1c0,31.2-11.7,40.9-50.6,40.9C8093-1623,8081.4-1632.7,8087.2-1656.1z"/><path d="M8317-1661.9c0-25.3,13.6-38.9,38.9-38.9s38.9,13.6,38.9,38.9c0,25.3-13.6,38.9-38.9,38.9S8317-1636.6,8317-1661.9z"/></g></g>
</svg>