<?xml version="1.0" encoding="utf-8"?>
<!-- Svg Vector Icons : http://www.onlinewebfonts.com/icon -->
<!DOCTYPE svg PUBLIC "-//W3C//DTD SVG 1.1//EN" "http://www.w3.org/Graphics/SVG/1.1/DTD/svg11.dtd">
<svg version="1.1" xmlns="http://www.w3.org/2000/svg" xmlns:xlink="http://www.w3.org/1999/xlink" x="0px" y="0px" viewBox="0 0 1000 1000" enable-background="new 0 0 1000 1000" xml:space="preserve">
<metadata> Svg Vector Icons : http://www.onlinewebfonts.com/icon </metadata>
<g><g transform="translate(0.000000,511.000000) scale(0.100000,-0.100000)"><path d="M2423.4,676.4v-858.1h146.3h146.3v858.1v858.1h-146.3h-146.3V676.4z"/><path d="M2793.9,676.4v-858.1h136.5H3067v858.1v858.1h-136.5h-136.5V676.4z"/><path d="M3129.4,682.2l5.8-854.2l132.6-5.8l130.7-5.8v860.1v858.1H3262h-136.5L3129.4,682.2z"/><path d="M3476.6,676.4v-858.1h136.5h136.5v858.1v858.1h-136.5h-136.5V676.4z"/><path d="M3812,682.2l5.8-854.2l132.6-5.8l130.7-5.8v860.1v858.1h-136.5h-136.5L3812,682.2z"/><path d="M4159.2,676.4v-860.1l132.6,5.8l130.7,5.8l5.8,854.2l3.9,852.3h-136.5h-136.5V676.4z"/><path d="M4490.7,676.4v-858.1h136.5h136.5v858.1v858.1h-136.5h-136.5V676.4z"/><path d="M4841.8,676.4v-860.1l132.6,5.8l130.7,5.8l5.8,854.2l3.9,852.3h-136.5h-136.5V676.4z"/><path d="M5173.3,676.4v-858.1h136.5h136.5v858.1v858.1h-136.5h-136.5V676.4z"/><path d="M5524.4,676.4v-860.1l132.6,5.8l130.7,5.8l5.8,854.2l3.9,852.3h-136.5h-136.5V676.4z"/><path d="M5856,676.4v-858.1h136.5H6129v858.1v858.1h-136.5H5856V676.4z"/><path d="M6207,676.4v-860.1l128.7,5.8l130.7,5.8l-1.9,819.1c0,450.5-2,834.7-2,854.2c-1.9,27.3-21.4,33.2-128.7,33.2H6207V676.4z"/><path d="M6538.6,676.4v-858.1h136.5h136.5v858.1v858.1h-136.5h-136.5V676.4z"/><path d="M6889.6,676.4v-858.1h126.8h126.8v858.1v858.1h-126.8h-126.8V676.4z"/><path d="M7221.2,676.4v-858.1h136.5h136.5v858.1v858.1h-136.5h-136.5V676.4z"/><path d="M7572.3,676.4v-858.1H7699h126.8v858.1v858.1H7699h-126.8V676.4z"/><path d="M7903.8,676.4v-858.1h136.5h136.5v858.1v858.1h-136.5h-136.5V676.4z"/><path d="M8254.9,676.4v-858.1h126.8h126.8v858.1v858.1h-126.8h-126.8V676.4z"/><path d="M8586.4,676.4v-858.1H8723h136.5v858.1v858.1H8723h-136.5V676.4z"/><path d="M8937.5,676.4v-858.1h126.8h126.8v858.1v858.1h-126.8h-126.8V676.4z"/><path d="M9269.1,676.4v-858.1h136.5h136.5v858.1v858.1h-136.5h-136.5V676.4z"/><path d="M9620.1,676.4v-858.1h136.5h136.5l1.9,156c0,85.8,2,440.8,2,789.9s-2,665.1-2,702.1l-1.9,68.3h-136.5h-136.5V676.4z"/><path d="M338.5,978.7c-76.1-87.8-97.5-163.8-52.7-195c29.3-21.5,29.3-35.1,3.9-148.2c-15.6-68.3-35.1-193.1-42.9-275c-11.7-140.4-15.6-152.1-66.3-169.7c-46.8-15.6-54.6-31.2-66.3-124.8c-17.6-142.4-19.5-940.1-2-1033.7l13.7-72.2h210.6h208.7l9.8,146.3c11.7,179.4,78,300.4,218.4,394c119,81.9,228.2,109.2,353,93.6c267.2-33.2,473.9-277,454.4-536.3c-5.8-89.7-1.9-97.5,39-97.5h42.9V3.5v1043.4h-631.9H398.9L338.5,978.7z M976.2,528.1l5.9-198.9l-171.6-41c-216.5-52.7-458.3-83.9-481.7-60.5c-19.5,19.5,46.8,323.8,93.6,436.9l29.3,72.2L711,731l259.4-5.8L976.2,528.1z"/><path d="M1779.8-601.1v-302.3h448.6h448.6v54.6c0,87.8,85.8,245.8,177.5,321.8c83.9,72.2,230.1,130.7,329.6,130.7c128.7,0,261.3-60.4,362.8-163.8c93.6-95.6,120.9-150.2,152.1-288.7l11.7-54.6h1176h1174.1l25.3,101.4c44.9,189.2,189.2,335.5,384.2,388.1c171.6,46.8,417.4-39,514.9-181.4c27.3-40.9,54.6-72.2,60.4-74.1c5.8,0,27.3,27.3,48.8,58.5c85.8,132.6,319.9,232.1,481.7,206.7c115.1-19.5,259.4-99.5,327.7-183.3l58.5-74.1l103.4,101.4c150.2,150.2,316,193.1,512.9,134.6c179.4-52.7,358.9-265.2,358.9-423.2v-54.6h475.9h475.9l7.8,152.1c3.9,81.9,3.9,218.4,0,302.3l-9.8,150.2H5834.5H1779.8V-601.1z"/><path d="M933.3-542.6c-208.7-74.1-319.9-327.7-236-532.4c64.4-150.2,197-237.9,366.7-237.9c368.6,0,540.2,442.7,267.2,690.4C1216.1-519.2,1079.6-489.9,933.3-542.6z M1196.6-679.1c83.9-44.9,134.6-138.5,134.6-251.6c0-83.9-7.8-103.4-74.1-167.7c-97.5-97.5-187.2-117-300.4-60.4c-144.3,70.2-198.9,226.2-124.8,368.6C896.3-663.5,1065.9-612.8,1196.6-679.1z"/><path d="M966.5-819.6c2-39-7.8-60.4-39-74.1c-54.6-23.4-58.5-48.8-7.8-48.8c39,0,72.2-62.4,50.7-95.6c-5.8-9.8,0-25.4,11.7-33.1c11.7-5.9,29.3-2,37.1,13.6c23.4,35.1,72.2,39,99.5,5.9c31.2-39,58.5-13.7,44.9,40.9c-9.8,39-2,52.7,39,68.3c64.4,23.4,64.4,35.1,0,58.5c-41,15.6-48.8,29.3-42.9,68.3c9.8,48.8-27.3,70.2-52.7,29.3c-5.8-9.8-29.3-19.5-50.7-19.5c-19.5,0-37.1,9.8-37.1,19.5c0,11.7-11.7,19.5-27.3,19.5C972.3-766.9,964.5-784.4,966.5-819.6z"/><path d="M3065-540.7c-191.1-68.3-280.8-206.7-267.2-411.5c7.8-138.5,37.1-193.1,159.9-290.6c99.5-81.9,278.9-95.6,413.5-31.2c237.9,115.1,288.6,442.7,97.5,633.9C3351.7-523.1,3209.4-488,3065-540.7z M3373.2-733.7c122.9-120.9,103.4-319.9-39-413.5c-224.3-146.3-511,105.3-390.1,341.3C3033.8-634.3,3240.6-599.2,3373.2-733.7z"/><path d="M3092.3-804c11.7-44.9-19.5-99.5-54.6-99.5c-42.9,0-35.1-27.3,15.6-48.8c31.2-15.6,41-33.2,37.1-74.1c-5.9-56.6,13.6-66.3,52.7-27.3c31.2,31.2,66.3,31.2,91.7-3.9c31.2-40.9,62.4-11.7,50.7,46.8c-5.9,41,0,52.7,33.1,62.4c52.7,13.7,54.6,64.4,2,64.4c-39,0-46.8,17.6-41,83.9c2,17.6-7.8,33.2-25.3,33.2c-17.6,0-31.2-7.8-31.2-19.5c0-9.8-17.5-19.5-37.1-19.5c-21.5,0-44.9,9.8-50.7,19.5C3113.8-753.2,3080.6-764.9,3092.3-804z"/><path d="M6452.8-542.6c-208.7-74.1-319.8-327.7-236-532.4c64.4-150.2,197-237.9,364.7-237.9c372.5,0,544.1,442.7,269.1,690.4C6735.6-519.2,6599-489.9,6452.8-542.6z M6716.1-679.1c83.9-44.9,134.6-138.5,134.6-251.6c0-83.9-7.8-103.4-74.1-167.7c-97.5-97.5-187.2-117-300.4-60.4c-46.8,21.4-99.5,66.3-119,97.5c-41,70.2-42.9,198.9-3.9,276.9C6415.7-663.5,6589.3-614.8,6716.1-679.1z"/><path d="M6485.9-819.6c2-39-7.8-60.4-39-74.1c-54.6-23.4-58.5-48.8-7.8-48.8c39,0,72.1-62.4,50.7-95.6c-5.8-9.8,0-25.4,11.7-33.1c11.7-5.9,29.3,0,39,13.6c21.5,35.1,58.5,37.1,99.5,2c33.2-27.3,68.3-2,46.8,33.2c-17.5,27.3,7.8,80,37.1,80c50.7,0,50.7,39,0,58.5c-42.9,17.6-50.7,29.3-40.9,68.3c9.8,35.1,3.9,48.8-15.6,48.8c-15.6,0-35.1-7.8-40.9-19.5c-5.8-9.8-29.3-19.5-50.7-19.5c-19.5,0-37.1,9.8-37.1,19.5c0,11.7-11.7,19.5-27.3,19.5C6491.8-766.9,6484-784.4,6485.9-819.6z"/><path d="M7379.2-536.7c-97.5-33.2-228.2-165.8-253.5-259.4c-31.2-117-25.4-185.3,25.4-296.5c64.4-138.5,169.7-206.7,331.6-216.5c185.3-11.7,321.8,70.2,392,234c105.3,255.5-62.4,528.5-337.4,551.9C7486.4-519.2,7416.2-525,7379.2-536.7z M7644.4-688.9c126.8-76.1,165.8-204.8,105.3-341.3c-31.2-72.2-56.6-97.5-130.7-128.7c-115.1-50.7-200.9-37.1-294.5,46.8c-124.8,115.1-109.2,319.9,31.2,415.4C7441.6-638.2,7556.7-634.3,7644.4-688.9z"/><path d="M7408.4-813.7c7.8-35.1,0-54.6-29.2-74.1c-50.7-31.2-52.6-46.8-1.9-60.4c29.3-7.8,39-27.3,39-70.2c0-70.2,3.9-72.1,66.3-31.2c41,27.3,46.8,27.3,70.2,0c35.1-42.9,64.4-35.1,52.7,11.7c-15.6,56.6,3.9,95.6,46.8,95.6c54.6,0,44.9,37.1-13.6,58.5c-41,17.6-48.8,29.3-39,68.3c9.8,35.1,3.9,48.8-17.6,48.8c-15.6,0-29.3-7.8-29.3-19.5c0-9.8-17.6-19.5-37.1-19.5c-21.4,0-44.9,9.8-50.7,19.5c-5.8,11.7-25.4,19.5-40.9,19.5C7404.6-766.9,7398.7-780.5,7408.4-813.7z"/><path d="M8305.6-536.7c-44.9-11.7-111.2-54.6-158-103.4c-179.4-177.5-154.1-464.2,54.6-608.5c68.3-48.8,97.5-54.6,226.3-54.6c165.8,0,230.1,31.2,327.7,159.9c78,101.4,85.8,290.6,19.5,415.4C8691.8-569.9,8487-486,8305.6-536.7z M8568.9-694.7c183.3-122.9,165.8-376.4-33.1-472c-122.9-58.5-263.3-11.7-341.3,113.1c-78,124.8-11.7,325.7,128.7,384.2C8397.3-638.2,8500.6-647.9,8568.9-694.7z"/><path d="M8338.7-804c11.7-44.9-19.5-99.5-54.6-99.5c-15.6,0-29.2-7.8-29.2-19.5c0-9.8,13.7-19.5,29.2-19.5c35.1,0,66.3-54.6,54.6-99.5c-11.7-44.9,2-46.8,60.5-7.8c41,27.3,46.8,27.3,70.2,0c35.1-42.9,64.4-35.1,52.7,11.7c-15.6,56.6,3.9,95.6,46.8,95.6c46.8,0,48.8,35.1,3.9,52.7c-46.8,17.5-66.3,48.8-52.7,89.7c5.9,21.5,0,33.2-19.5,33.2c-17.5,0-31.2-7.8-31.2-19.5c0-9.8-17.6-19.5-37.1-19.5c-21.4,0-44.9,9.8-50.7,19.5C8360.2-753.2,8327-764.9,8338.7-804z"/></g></g>
</svg>